<?xml version="1.0" standalone="no"?>
<!DOCTYPE svg PUBLIC "-//W3C//DTD SVG 20010904//EN"
 "http://www.w3.org/TR/2001/REC-SVG-20010904/DTD/svg10.dtd">
<svg version="1.0" xmlns="http://www.w3.org/2000/svg"
 width="225.000000pt" height="225.000000pt" viewBox="0 0 225.000000 225.000000"
 preserveAspectRatio="xMidYMid meet">
<metadata>
Created by potrace 1.16, written by Peter Selinger 2001-2019
</metadata>
<g transform="translate(0.000000,225.000000) scale(0.100000,-0.100000)"
fill="#000000" stroke="none">
<path d="M230 1380 l0 -870 305 0 305 0 23 -38 c13 -20 75 -132 138 -249 63
-117 116 -213 119 -213 3 0 66 112 140 248 l135 247 312 3 313 2 0 870 0 870
-895 0 -895 0 0 -870z m606 433 c33 -21 49 -68 38 -110 -13 -51 -53 -78 -116
-78 -43 0 -53 4 -79 33 -90 101 42 231 157 155z m661 -296 c23 -16 53 -51 69
-80 l29 -52 3 -232 3 -233 -100 0 -101 0 0 168 c-1 200 -9 248 -45 279 -53 46
-145 16 -164 -54 -6 -21 -11 -118 -11 -215 l0 -178 -100 0 -100 0 0 310 0 310
100 0 100 0 0 -42 0 -42 33 34 c48 49 81 61 168 58 64 -3 82 -7 116 -31z
m-629 -284 l-3 -308 -102 -3 -103 -3 0 311 0 310 105 0 105 0 -2 -307z"/>
</g>
</svg>
