<?xml version="1.0" standalone="no"?>
<!DOCTYPE svg PUBLIC "-//W3C//DTD SVG 20010904//EN"
 "http://www.w3.org/TR/2001/REC-SVG-20010904/DTD/svg10.dtd">
<svg version="1.0" xmlns="http://www.w3.org/2000/svg"
 width="225.000000pt" height="225.000000pt" viewBox="0 0 225.000000 225.000000"
 preserveAspectRatio="xMidYMid meet">
<metadata>
Created by potrace 1.16, written by Peter Selinger 2001-2019
</metadata>
<g transform="translate(0.000000,225.000000) scale(0.100000,-0.100000)"
fill="#000000" stroke="none">
<path d="M975 2239 c-366 -46 -713 -302 -870 -642 -136 -294 -136 -650 0 -944
103 -224 306 -430 529 -538 373 -181 826 -140 1152 103 570 425 621 1235 108
1722 -248 236 -574 342 -919 299z m693 -681 c7 -7 12 -26 12 -44 0 -39 -186
-919 -200 -945 -7 -13 -21 -19 -43 -19 -26 0 -63 22 -174 105 -78 58 -145 105
-149 105 -4 0 -44 -34 -89 -75 -58 -52 -91 -75 -109 -75 -24 0 -27 8 -66 133
-22 72 -49 154 -58 181 l-17 49 -145 46 c-80 25 -151 50 -158 54 -26 17 -13
47 31 68 99 47 1095 427 1123 428 16 1 35 -4 42 -11z"/>
</g>
</svg>
